<svg width="100" height="100" viewBox="0 0 100 100" xmlns="http://www.w3.org/2000/svg" style="background:#707070"><title>15</title><path d="M31.06 69h8.82V30h-7.5L22 34.8l1.5 6.84 7.44-3.54h.12V69zm42.7-39H52.28l-2.52 20.46c1.56-.24 3.06-.36 5.22-.36 7.8 0 10.98 2.46 10.98 6.48 0 4.14-4.02 5.94-7.8 5.94-3.54 0-7.08-1.08-8.76-1.92l-1.68 6.84c2.16 1.14 6.12 2.22 10.86 2.22 10.5 0 16.74-6.42 16.74-13.68 0-4.56-1.8-7.8-4.74-9.78-2.7-1.98-6.54-2.82-10.26-2.82-.96 0-1.68 0-2.52.12l.84-6h15.12V30z" fill="#FFF" fill-rule="evenodd"/></svg>