<svg width="100" height="100" viewBox="0 0 100 100" xmlns="http://www.w3.org/2000/svg" style="background:#111"><title>3</title><path d="M34 67.62c2.28 1.38 6.54 2.7 11.58 2.7 9.9 0 15.96-5.04 15.96-11.88 0-5.16-3.78-8.7-8.46-9.54v-.12c4.8-1.62 7.14-4.92 7.14-9.06 0-5.34-4.62-9.72-12.9-9.72-5.1 0-9.72 1.44-12.06 2.94l1.86 6.6c1.56-.96 4.92-2.34 8.1-2.34 3.9 0 5.76 1.74 5.76 4.08 0 3.3-3.84 4.5-6.9 4.5h-3.6v6.54h3.72c4.02 0 7.86 1.74 7.86 5.64 0 2.88-2.4 5.16-7.14 5.16-3.72 0-7.44-1.5-9.06-2.4L34 67.62z" fill="#FFF" fill-rule="evenodd"/></svg>