<svg width="100" height="100" viewBox="0 0 100 100" xmlns="http://www.w3.org/2000/svg" style="background:#282828"><title>6</title><path d="M59.62 30.06a19.2 19.2 0 0 0-3.66.06c-6.06.3-11.16 2.16-15 5.7C36.7 39.78 34 45.9 34 53.22c0 9.3 5.1 17.04 15.54 17.04 8.4 0 14.34-6.36 14.34-14.1 0-8.1-5.52-12.72-12.06-12.72-3.6 0-6.36 1.14-8.28 3.06h-.18c1.02-4.5 4.62-8.64 12.72-9.3 1.44-.12 2.52-.18 3.54-.12v-7.02zm-10.2 33.48c-4.2 0-6.18-3.72-6.36-7.86 0-1.08.12-1.8.42-2.34.84-1.92 2.88-3.42 5.34-3.42 3.9 0 5.82 3.12 5.82 6.72 0 3.96-2.04 6.9-5.22 6.9z" fill="#FFF" fill-rule="evenodd"/></svg>