<svg width="100" height="100" viewBox="0 0 100 100" xmlns="http://www.w3.org/2000/svg" style="background:#383838"><title>8</title><path d="M40.96 49.68C36.7 51.54 34 54.78 34 59.46c0 5.28 4.56 10.86 14.46 10.86 9.06 0 15-4.8 15-11.88 0-4.98-3.36-8.22-7.2-9.66v-.18c3.9-1.92 5.7-5.22 5.7-8.58 0-4.74-3.78-10.02-12.9-10.02-7.8 0-13.74 4.38-13.74 10.98 0 3.42 1.86 6.6 5.64 8.58v.12zm7.86 14.34c-3.42 0-5.58-2.64-5.52-5.46 0-2.82 1.74-4.98 4.74-5.82 3.54.96 6.12 3 6.12 6.42 0 2.76-2.16 4.86-5.34 4.86zm-.18-27.84c3.36 0 4.74 2.4 4.74 4.86 0 2.4-1.86 4.32-3.96 4.92-3.12-.96-5.46-2.64-5.46-5.28 0-2.4 1.56-4.5 4.68-4.5z" fill="#FFF" fill-rule="evenodd"/></svg>