<svg width="100" height="100" viewBox="0 0 100 100" xmlns="http://www.w3.org/2000/svg" style="background:#404040"><title>9</title><path d="M37.54 70.2c1.02.06 2.64.12 4.14 0 6.06-.24 11.22-2.04 14.94-5.4 4.26-3.96 6.84-9.84 6.84-18 0-9.12-4.74-16.8-14.76-16.8C40.12 30 34 36.42 34 44.04c0 7.62 5.52 12.18 12.12 12.18 3.54 0 6.12-1.02 7.86-2.82l.12.06c-.66 2.94-2.34 5.52-4.92 7.26-2.04 1.44-4.86 2.22-7.68 2.4-1.8.06-2.76.12-3.96 0v7.08zm10.8-33.54c4.26 0 5.82 4.08 5.76 8.22 0 1.14-.12 1.74-.42 2.34-.84 1.38-2.58 2.52-5.1 2.52-3.66 0-5.52-2.88-5.52-6.24 0-4.08 2.22-6.84 5.28-6.84z" fill="#FFF" fill-rule="evenodd"/></svg>